/home/minht/3dpredictsim_tutorial/predsim_tutorial/Results/Case_11/GRF.mot
version=1
nRows=15
nColumns=19
inDegrees=yes
endheader 
time	r_ground_force_vx	r_ground_force_vy	r_ground_force_vz	r_ground_force_px	r_ground_force_py	r_ground_force_pz	l_ground_force_vx	l_ground_force_vy	l_ground_force_vz	l_ground_force_px	l_ground_force_py	l_ground_force_pz	r_ground_torque_x	r_ground_torque_y	r_ground_torque_z	l_ground_torque_x	l_ground_torque_y	l_ground_torque_z	
          0.00000000	        -66.11409158	         49.53616954	        -16.58856233	         -3.58498913	          0.00000000	          1.58173898	         62.36270791	        843.97263825	        -30.12885221	          0.01055907	          0.00000000	         -0.00532781	          0.00000000	        169.56003619	          0.00000000	          0.00000000	          8.99975754	          0.00000000	
          0.01616052	        -95.58780312	         96.44127288	        -39.07852119	         -1.77185305	          0.00000000	          0.80349495	         67.35645997	        829.69965208	        -27.70191835	          0.02244458	          0.00000000	         -0.01015551	          0.00000000	        152.62747888	          0.00000000	          0.00000000	         15.95957935	          0.00000000	
          0.03232103	        -43.21004213	        178.55541259	        -34.09240259	         -0.90636153	          0.00000000	          0.42256298	         72.69623497	        804.58067575	        -23.20572536	          0.04438020	          0.00000000	         -0.01882356	          0.00000000	         57.06215054	          0.00000000	          0.00000000	         10.82167626	          0.00000000	
          0.04848155	        -37.52011973	        271.71523158	        -20.59273934	         -0.55826508	          0.00000000	          0.26685716	         76.19307445	        772.24096823	        -19.33861491	          0.07107808	          0.00000000	         -0.02944634	          0.00000000	         29.91702499	          0.00000000	          0.00000000	          8.17198087	          0.00000000	
          0.06464207	        -47.22931195	        348.77104426	        -15.23494751	         -0.40319427	          0.00000000	          0.19722601	         75.29555412	        733.23285610	        -16.19037060	          0.09692772	          0.00000000	         -0.03964624	          0.00000000	         23.65207797	          0.00000000	          0.00000000	          8.47091205	          0.00000000	
          0.08080258	        -57.05439612	        410.68564738	        -13.17948375	         -0.31011425	          0.00000000	          0.15544360	         75.02318860	        681.79360039	        -11.82490059	          0.12428429	          0.00000000	         -0.05032954	          0.00000000	         21.34674268	          0.00000000	          0.00000000	          9.78777386	          0.00000000	
          0.09696310	        -68.30778915	        479.79485611	         -9.81928296	         -0.23644286	          0.00000000	          0.12152600	         72.50335855	        623.86636678	         -5.97020209	          0.16321070	          0.00000000	         -0.06539045	          0.00000000	         19.36108065	          0.00000000	          0.00000000	         11.40305718	          0.00000000	
          0.11312362	        -80.42600704	        547.71317198	         -6.51549697	         -0.18162237	          0.00000000	          0.09594333	         66.36699256	        562.50172905	          0.51217802	          0.21413332	          0.00000000	         -0.08389860	          0.00000000	         17.80393503	          0.00000000	          0.00000000	         12.85304930	          0.00000000	
          0.12928413	       -100.96699249	        625.62996572	         -4.71744058	         -0.13604760	          0.00000000	          0.07438364	         55.90230578	        497.78946279	          7.23887499	          0.29080759	          0.00000000	         -0.10724871	          0.00000000	         16.83222417	          0.00000000	          0.00000000	         14.66585497	          0.00000000	
          0.14544465	       -118.30883882	        706.93750534	         -8.34765977	         -0.09994808	          0.00000000	          0.05714534	         43.22042992	        431.06633659	         13.98597366	          0.39840773	          0.00000000	         -0.13711807	          0.00000000	         15.81328299	          0.00000000	          0.00000000	         18.55792639	          0.00000000	
          0.16160517	       -122.66613381	        749.31766264	         -9.60829488	         -0.07640199	          0.00000000	          0.04621229	         30.12867645	        367.61978871	         19.47473278	          0.50973737	          0.00000000	         -0.16810489	          0.00000000	         13.84169455	          0.00000000	          0.00000000	         22.01208219	          0.00000000	
          0.17776568	       -117.76847246	        764.16952970	         -9.35390506	         -0.06057668	          0.00000000	          0.03905111	         18.98097324	        314.06842738	         23.02687017	          0.61786768	          0.00000000	         -0.19904705	          0.00000000	         11.65041171	          0.00000000	          0.00000000	         24.70162026	          0.00000000	
          0.19392620	       -108.95828217	        767.22689921	         -8.39481507	         -0.05019635	          0.00000000	          0.03433769	         11.24538941	        274.12936245	         24.87673396	          0.71760651	          0.00000000	         -0.22778174	          0.00000000	          9.78631888	          0.00000000	          0.00000000	         26.67944349	          0.00000000	
          0.21008671	        -98.65960892	        764.08002803	         -7.25177602	         -0.04329958	          0.00000000	          0.03099167	          6.55088246	        245.01190512	         26.44467410	          0.80496539	          0.00000000	         -0.25290585	          0.00000000	          8.38824945	          0.00000000	          0.00000000	         28.70485654	          0.00000000	
          0.22624723	        -88.34387270	        757.91134929	         -6.07530806	         -0.03893462	          0.00000000	          0.02856027	          3.56215934	        224.94635781	         28.11430848	          0.87411921	          0.00000000	         -0.27252461	          0.00000000	          7.41710586	          0.00000000	          0.00000000	         30.79948629	          0.00000000	
